<svg width="2046" height="1617" viewBox="0 0 2046 1617" fill="none" xmlns="http://www.w3.org/2000/svg">
<g clip-path="url(#clip0)">
<rect x="505" y="221" width="1024" height="1024" rx="150" fill="#DDDDDD"/>
<path opacity="0.1" d="M1029.53 1021.66C1158.17 794.516 1006.08 722.172 927.006 605.181C847.935 488.19 1057.58 329.206 1214.68 373.308C1371.79 417.41 1529.62 522.988 1596.61 750.739C1663.6 978.49 1384.76 1473.38 1161.99 1467.05C939.227 1460.71 900.899 1248.81 1029.53 1021.66Z" fill="white"/>
<path opacity="0.1" d="M1050.59 731.729C1306.37 678.895 1260.57 516.444 1296.52 379.617C1332.47 242.79 1590.34 296.034 1660.69 443.631C1731.05 591.227 1755.61 779.937 1628.32 980.725C1501.04 1181.51 944.702 1297.69 802.633 1125.48C660.564 953.271 794.807 784.562 1050.59 731.729Z" fill="white"/>
<path d="M893.768 950.317L766.249 959.075C707.656 959.075 660.764 911.495 660.764 852.895L651.237 691.663C651.237 633.071 698.903 585.484 757.496 585.484L816.392 591.388C814.524 598.763 813.639 606.529 813.639 614.393L834.874 856.829C834.874 897.042 858.568 932.039 893.768 950.317Z" fill="#CECECE"/>
<path d="M1364 852.895C1364 911.495 1316.41 959.075 1257.82 959.075L1133.75 946.786C1165.5 927.81 1186.44 894.683 1186.44 856.829L1218.39 604.562C1218.39 598.861 1217.91 593.156 1217.01 587.651L1248.08 585.484C1306.67 585.484 1354.15 633.071 1354.15 691.663L1364 852.895" fill="#888888"/>
<path d="M1058.04 939.314C1056.77 939.409 1055.39 939.409 1054.1 939.409L893.768 950.317C858.568 932.039 834.874 897.042 834.874 856.829L813.639 614.393C813.639 606.529 814.524 598.763 816.392 591.388L958.627 605.247C901.508 606.916 858.718 653.817 858.718 711.325V823.407C858.718 881.996 903.275 929.582 961.969 929.582L1058.04 939.314" fill="#9C9C9C"/>
<path d="M1151.28 721.159V833.237C1151.28 890.545 1111.5 937.242 1054.76 939.314L960.336 929.582C901.638 929.582 858.718 881.996 858.718 823.407V711.325C858.718 653.817 901.508 606.916 958.627 605.248L1052.16 614.98C1110.85 614.98 1151.28 662.566 1151.28 721.159Z" fill="#73D0C5"/>
<path d="M1218.39 604.562L1186.44 856.829C1186.44 894.683 1165.5 927.81 1133.75 946.786L1054.76 939.314C1111.5 937.242 1151.28 890.545 1151.28 833.237V721.159C1151.28 662.566 1109.43 614.98 1050.74 614.98L954.168 605.247C955.238 605.149 957.149 605.149 958.223 605.149L1216.59 587.651C1217.49 593.156 1218.39 598.861 1218.39 604.562Z" fill="#737373"/>
<path d="M1133.75 948.752C1115.75 959.648 1094.42 967.915 1071.41 967.915H949.896C929.452 967.915 910.381 961.033 893.768 952.278L1054.1 940.388C1055.39 940.388 1056.77 940.881 1058.04 940.79L1133.75 948.752Z" fill="#B9B9B9"/>
<path d="M955.801 605.247L816.392 591.388C827.606 543.116 873.513 507.034 928.669 507.034L1103.36 497.102C1160.78 497.102 1208.36 536.424 1217.01 587.651L959.045 605.149C957.968 605.149 956.883 605.149 955.801 605.247" fill="#B9B9B9"/>
<path d="M1196.54 761.005C1196.54 863.318 1103.77 956.096 1001.45 956.096C899.13 956.096 826.011 873.152 826.011 770.832C826.011 668.516 899.13 585.566 1001.45 585.566C1103.77 585.566 1196.54 658.685 1196.54 761.005" fill="#515151"/>
<path d="M1147.04 770.041C1147.04 848.754 1075.67 920.138 996.936 920.138C918.22 920.138 861.979 856.32 861.979 777.603C861.979 698.883 918.22 635.067 996.936 635.067C1075.67 635.067 1147.04 691.325 1147.04 770.041Z" fill="#BDBDBD"/>
<path d="M1165.07 756.491C1165.07 837.82 1091.32 911.567 1010 911.567C928.669 911.567 870.546 845.634 870.546 764.307C870.546 682.977 928.669 617.037 1010 617.037C1091.32 617.037 1165.07 675.159 1165.07 756.491" fill="#515151"/>
<path d="M1107.71 672.567C1107.71 682.966 1098.29 692.393 1087.88 692.393C1077.48 692.393 1070.05 683.966 1070.05 673.565C1070.05 663.162 1077.48 654.732 1087.88 654.732C1098.29 654.732 1107.71 662.162 1107.71 672.567" fill="#BDBDBD"/>
<path d="M1137.52 713.561C1137.52 719.381 1132.25 724.664 1126.41 724.664C1120.59 724.664 1116.43 719.946 1116.43 714.121C1116.43 708.291 1120.59 703.573 1126.41 703.573C1132.25 703.573 1137.52 707.732 1137.52 713.561Z" fill="#BDBDBD"/>
<circle cx="1352" cy="381" r="12" fill="#BDBDBD"/>
<circle cx="704" cy="1125" r="7" fill="#BDBDBD"/>
</g>
<path d="M186.408 1400.52V1502H176.158V1391.3C176.158 1385.56 174.723 1381.05 171.853 1377.77C169.12 1374.49 164.405 1372.85 157.708 1372.85H156.683V1366.7H171.033C178.687 1366.7 184.905 1367.72 189.688 1369.77C194.608 1371.69 198.708 1374.76 201.988 1379L272.508 1461V1366.7H282.758V1502.62H273.328L186.408 1400.52ZM353.586 1504.05C343.609 1504.05 334.863 1501.86 327.346 1497.49C319.966 1492.98 314.294 1486.97 310.331 1479.45C306.368 1471.8 304.386 1463.25 304.386 1453.82C304.386 1444.39 306.368 1435.92 310.331 1428.4C314.294 1420.75 319.966 1414.74 327.346 1410.36C334.863 1405.85 343.609 1403.6 353.586 1403.6C363.563 1403.6 372.241 1405.85 379.621 1410.36C387.138 1414.74 392.878 1420.75 396.841 1428.4C400.804 1435.92 402.786 1444.39 402.786 1453.82C402.786 1463.25 400.804 1471.8 396.841 1479.45C392.878 1486.97 387.138 1492.98 379.621 1497.49C372.241 1501.86 363.563 1504.05 353.586 1504.05ZM353.586 1494.82C360.556 1494.82 365.886 1491.07 369.576 1483.55C373.266 1476.03 375.111 1466.12 375.111 1453.82C375.111 1441.52 373.266 1431.62 369.576 1424.1C365.886 1416.58 360.556 1412.82 353.586 1412.82C346.616 1412.82 341.286 1416.58 337.596 1424.1C333.906 1431.62 332.061 1441.52 332.061 1453.82C332.061 1466.12 333.906 1476.03 337.596 1483.55C341.286 1491.07 346.616 1494.82 353.586 1494.82ZM496.011 1502C491.091 1502 487.333 1501.25 484.736 1499.74C482.14 1498.1 480.295 1495.44 479.201 1491.75C478.108 1487.92 477.561 1482.46 477.561 1475.35V1366.7H504.211V1475.35C504.211 1482.32 505.168 1487.51 507.081 1490.93C508.995 1494.21 512.821 1495.85 518.561 1495.85H520.611V1502H496.011ZM540.027 1432.3C540.027 1425.33 539.07 1420.2 537.157 1416.92C535.38 1413.51 531.622 1411.8 525.882 1411.8H523.832V1405.65H544.127C553.01 1405.65 558.819 1408.25 561.552 1413.44H562.372C569.889 1406.88 578.499 1403.6 588.202 1403.6C594.899 1403.6 600.707 1404.9 605.627 1407.49C610.684 1409.95 614.305 1412.55 616.492 1415.28C619.772 1411.73 623.667 1408.93 628.177 1406.88C632.687 1404.69 638.495 1403.6 645.602 1403.6C669.519 1403.6 681.477 1416.17 681.477 1441.32V1502H654.827V1441.11C654.827 1431.68 653.324 1424.78 650.317 1420.41C647.31 1416.04 643.347 1413.85 638.427 1413.85C634.737 1413.85 631.32 1414.6 628.177 1416.1C625.034 1417.47 622.574 1419.32 620.797 1421.64C621.07 1422.19 621.617 1423.69 622.437 1426.15C623.53 1430.25 624.077 1435.31 624.077 1441.32V1502H597.427V1441.11C597.427 1431.68 595.924 1424.78 592.917 1420.41C589.91 1416.04 585.947 1413.85 581.027 1413.85C578.157 1413.85 575.15 1414.74 572.007 1416.51C569 1418.15 566.745 1420 565.242 1422.05L565.857 1424.92C566.404 1426.56 566.677 1429.22 566.677 1432.91V1502H540.027V1432.3ZM733.787 1504.05C722.717 1504.05 714.107 1501.59 707.957 1496.67C701.944 1491.61 698.937 1484.85 698.937 1476.38C698.937 1469.54 700.509 1463.87 703.652 1459.36C706.932 1454.85 712.604 1451.43 720.667 1449.11C728.731 1446.79 739.937 1445.62 754.287 1445.62H757.362C757.362 1433.73 755.722 1425.33 752.442 1420.41C749.162 1415.35 744.311 1412.82 737.887 1412.82C732.557 1412.82 728.184 1414.12 724.767 1416.72C721.351 1419.32 718.891 1424.17 717.387 1431.27H706.112C706.112 1426.63 706.386 1422.66 706.932 1419.38C707.616 1416.1 709.051 1413.23 711.237 1410.77C715.474 1405.99 725.724 1403.6 741.987 1403.6C755.654 1403.6 766.041 1407.22 773.147 1414.46C780.391 1421.57 784.012 1432.3 784.012 1446.65V1502H766.587L759.412 1492.77H758.387C757.157 1494.69 755.244 1496.6 752.647 1498.51C748.001 1502.21 741.714 1504.05 733.787 1504.05ZM739.937 1493.8C742.807 1493.8 745.267 1493.25 747.317 1492.16C749.367 1490.93 751.349 1489.29 753.262 1487.24C755.039 1485.33 756.406 1483.07 757.362 1480.47V1454.85H754.287C744.584 1454.85 737.546 1456.63 733.172 1460.18C728.799 1463.6 726.612 1468.99 726.612 1476.38C726.612 1481.98 727.774 1486.28 730.097 1489.29C732.421 1492.3 735.701 1493.8 739.937 1493.8ZM847.786 1543C832.206 1543 819.906 1540.47 810.886 1535.42C802.003 1530.5 797.561 1522.43 797.561 1511.23C797.561 1504.39 800.295 1498.72 805.761 1494.21C811.228 1489.7 817.72 1486.49 825.236 1484.57C819.086 1482.66 816.011 1478.9 816.011 1473.3C816.011 1468.65 818.745 1465.24 824.211 1463.05C818.335 1461 813.415 1457.45 809.451 1452.39C805.625 1447.33 803.711 1441.73 803.711 1435.58C803.711 1424.37 807.675 1416.24 815.601 1411.18C823.665 1406.13 834.393 1403.6 847.786 1403.6H890.836V1409.13L872.386 1411.59C878.126 1413.78 882.773 1417.13 886.326 1421.64C890.016 1426.15 891.861 1430.8 891.861 1435.58C891.861 1446.79 888.035 1454.85 880.381 1459.77C872.865 1464.69 862 1467.15 847.786 1467.15C840.68 1467.15 835.486 1467.56 832.206 1468.38C828.926 1469.06 827.286 1470.7 827.286 1473.3C827.286 1475.49 828.926 1476.92 832.206 1477.6C835.486 1478.29 840.68 1478.7 847.786 1478.83C862.546 1479.11 874.573 1482.05 883.866 1487.65C893.296 1493.12 898.011 1500.97 898.011 1511.23C898.011 1522.43 893.501 1530.5 884.481 1535.42C875.598 1540.47 863.366 1543 847.786 1543ZM847.786 1458.95C858.72 1458.95 864.186 1451.16 864.186 1435.58C864.186 1427.93 862.683 1422.05 859.676 1417.95C856.67 1413.85 852.706 1411.8 847.786 1411.8C842.73 1411.8 838.698 1413.78 835.691 1417.74C832.821 1421.71 831.386 1427.65 831.386 1435.58C831.386 1451.16 836.853 1458.95 847.786 1458.95ZM847.786 1533.78C854.893 1533.78 860.428 1531.86 864.391 1528.04C868.355 1524.35 870.336 1518.74 870.336 1511.23C870.336 1505.21 868.423 1500.22 864.596 1496.26C860.906 1492.16 855.85 1489.49 849.426 1488.26L839.791 1487.24C835.008 1489.29 831.386 1492.23 828.926 1496.05C826.466 1499.88 825.236 1504.94 825.236 1511.23C825.236 1518.74 827.218 1524.35 831.181 1528.04C835.145 1531.86 840.68 1533.78 847.786 1533.78ZM956.731 1504.05C947.301 1504.05 939.033 1501.86 931.926 1497.49C924.819 1493.12 919.284 1487.17 915.321 1479.65C911.494 1472 909.581 1463.39 909.581 1453.82C909.581 1443.16 911.494 1434.08 915.321 1426.56C919.284 1419.04 924.683 1413.37 931.516 1409.54C938.349 1405.58 946.071 1403.6 954.681 1403.6C963.154 1403.6 970.808 1405.31 977.641 1408.72C984.474 1412.14 989.873 1416.99 993.836 1423.28C997.799 1429.43 999.781 1436.54 999.781 1444.6C999.781 1447.2 999.644 1450.13 999.371 1453.41L998.961 1457.51H937.256C937.256 1470.5 939.238 1480 943.201 1486.01C947.164 1491.89 952.699 1494.82 959.806 1494.82C966.366 1494.82 971.833 1493.39 976.206 1490.52C980.716 1487.51 985.021 1483.28 989.121 1477.81L995.476 1482.52C991.513 1488.67 986.524 1493.8 980.511 1497.9C974.634 1502 966.708 1504.05 956.731 1504.05ZM972.106 1448.29C972.106 1435.44 970.603 1426.35 967.596 1421.02C964.589 1415.56 960.284 1412.82 954.681 1412.82C949.488 1412.82 945.251 1415.63 941.971 1421.23C938.828 1426.7 937.256 1435.72 937.256 1448.29H972.106ZM1186.29 1502.82C1177.68 1502.82 1169.89 1501.04 1162.92 1497.49C1155.95 1493.8 1150.28 1486.69 1145.9 1476.17L1141.19 1464.69H1086.66L1069.85 1502H1059.19L1119.66 1366.7H1128.89L1174.81 1476.17C1180 1488.88 1187.11 1495.71 1196.13 1496.67V1501.79C1193.67 1502.48 1190.39 1502.82 1186.29 1502.82ZM1090.96 1455.46H1137.29L1114.74 1401.96L1090.96 1455.46ZM1195.05 1429.22C1191.36 1421.57 1188.22 1416.24 1185.62 1413.23C1183.02 1410.09 1180.09 1408.38 1176.81 1408.11V1404.01L1184.39 1403.6C1193.55 1403.6 1201.2 1405.38 1207.35 1408.93C1213.64 1412.48 1219.1 1419.25 1223.75 1429.22L1241.79 1468.58L1269.67 1405.65H1280.74L1237.08 1504.05H1229.7L1195.05 1429.22ZM1321.56 1504.05C1310.49 1504.05 1301.88 1501.59 1295.73 1496.67C1289.72 1491.61 1286.71 1484.85 1286.71 1476.38C1286.71 1469.54 1288.28 1463.87 1291.43 1459.36C1294.71 1454.85 1300.38 1451.43 1308.44 1449.11C1316.5 1446.79 1327.71 1445.62 1342.06 1445.62H1345.14C1345.14 1433.73 1343.5 1425.33 1340.22 1420.41C1336.94 1415.35 1332.08 1412.82 1325.66 1412.82C1320.33 1412.82 1315.96 1414.12 1312.54 1416.72C1309.12 1419.32 1306.66 1424.17 1305.16 1431.27H1293.89C1293.89 1426.63 1294.16 1422.66 1294.71 1419.38C1295.39 1416.1 1296.82 1413.23 1299.01 1410.77C1303.25 1405.99 1313.5 1403.6 1329.76 1403.6C1343.43 1403.6 1353.81 1407.22 1360.92 1414.46C1368.16 1421.57 1371.79 1432.3 1371.79 1446.65V1502H1354.36L1347.19 1492.77H1346.16C1344.93 1494.69 1343.02 1496.6 1340.42 1498.51C1335.77 1502.21 1329.49 1504.05 1321.56 1504.05ZM1327.71 1493.8C1330.58 1493.8 1333.04 1493.25 1335.09 1492.16C1337.14 1490.93 1339.12 1489.29 1341.04 1487.24C1342.81 1485.33 1344.18 1483.07 1345.14 1480.47V1454.85H1342.06C1332.36 1454.85 1325.32 1456.63 1320.95 1460.18C1316.57 1463.6 1314.39 1468.99 1314.39 1476.38C1314.39 1481.98 1315.55 1486.28 1317.87 1489.29C1320.19 1492.3 1323.47 1493.8 1327.71 1493.8ZM1395.58 1393.35C1395.58 1386.38 1394.63 1381.25 1392.71 1377.97C1390.8 1374.56 1386.97 1372.85 1381.23 1372.85H1379.18V1366.7H1403.78C1408.7 1366.7 1412.46 1367.52 1415.06 1369.16C1417.66 1370.8 1419.5 1373.53 1420.59 1377.36C1421.69 1381.05 1422.23 1386.38 1422.23 1393.35V1502H1395.58V1393.35ZM1464.84 1394.58C1459.92 1394.58 1456.09 1393.08 1453.36 1390.07C1450.76 1387.06 1449.46 1383.37 1449.46 1379C1449.46 1375.45 1450.49 1372.64 1452.54 1370.59C1454.72 1368.54 1457.46 1367.52 1460.74 1367.52C1465.66 1367.52 1469.41 1369.02 1472.01 1372.03C1474.74 1375.04 1476.11 1378.73 1476.11 1383.1C1476.11 1386.65 1475.02 1389.45 1472.83 1391.5C1470.78 1393.55 1468.12 1394.58 1464.84 1394.58ZM1451.51 1432.3C1451.51 1425.33 1450.55 1420.2 1448.64 1416.92C1446.73 1413.51 1442.9 1411.8 1437.16 1411.8H1435.11V1405.65H1459.71C1464.63 1405.65 1468.39 1406.47 1470.99 1408.11C1473.58 1409.75 1475.43 1412.48 1476.52 1416.31C1477.61 1420 1478.16 1425.33 1478.16 1432.3V1502H1451.51V1432.3ZM1530.76 1504.05C1519.69 1504.05 1511.08 1501.59 1504.93 1496.67C1498.92 1491.61 1495.91 1484.85 1495.91 1476.38C1495.91 1469.54 1497.49 1463.87 1500.63 1459.36C1503.91 1454.85 1509.58 1451.43 1517.64 1449.11C1525.71 1446.79 1536.91 1445.62 1551.26 1445.62H1554.34C1554.34 1433.73 1552.7 1425.33 1549.42 1420.41C1546.14 1415.35 1541.29 1412.82 1534.86 1412.82C1529.53 1412.82 1525.16 1414.12 1521.74 1416.72C1518.33 1419.32 1515.87 1424.17 1514.36 1431.27H1503.09C1503.09 1426.63 1503.36 1422.66 1503.91 1419.38C1504.59 1416.1 1506.03 1413.23 1508.21 1410.77C1512.45 1405.99 1522.7 1403.6 1538.96 1403.6C1552.63 1403.6 1563.02 1407.22 1570.12 1414.46C1577.37 1421.57 1580.99 1432.3 1580.99 1446.65V1502H1563.56L1556.39 1492.77H1555.36C1554.13 1494.69 1552.22 1496.6 1549.62 1498.51C1544.98 1502.21 1538.69 1504.05 1530.76 1504.05ZM1536.91 1493.8C1539.78 1493.8 1542.24 1493.25 1544.29 1492.16C1546.34 1490.93 1548.33 1489.29 1550.24 1487.24C1552.02 1485.33 1553.38 1483.07 1554.34 1480.47V1454.85H1551.26C1541.56 1454.85 1534.52 1456.63 1530.15 1460.18C1525.78 1463.6 1523.59 1468.99 1523.59 1476.38C1523.59 1481.98 1524.75 1486.28 1527.07 1489.29C1529.4 1492.3 1532.68 1493.8 1536.91 1493.8ZM1653.17 1504.05C1645.79 1504.05 1639.78 1502.21 1635.13 1498.51C1632.81 1496.87 1630.96 1494.96 1629.59 1492.77H1628.57L1621.39 1502H1603.97V1393.35C1603.97 1386.38 1603.01 1381.25 1601.1 1377.97C1599.19 1374.56 1595.36 1372.85 1589.62 1372.85H1587.57V1366.7H1612.17C1617.09 1366.7 1620.85 1367.52 1623.44 1369.16C1626.04 1370.8 1627.89 1373.53 1628.98 1377.36C1630.07 1381.05 1630.62 1386.38 1630.62 1393.35V1409.75C1632.4 1408.66 1634.31 1407.63 1636.36 1406.67C1641.96 1404.62 1647.22 1403.6 1652.14 1403.6C1666.36 1403.6 1677.22 1408.31 1684.74 1417.74C1692.39 1427.04 1696.22 1439.06 1696.22 1453.82C1696.22 1468.58 1692.46 1480.68 1684.94 1490.11C1677.56 1499.4 1666.97 1504.05 1653.17 1504.05ZM1649.07 1494.82C1655.77 1494.82 1660.69 1491.13 1663.83 1483.75C1666.97 1476.37 1668.54 1466.4 1668.54 1453.82C1668.54 1426.49 1661.71 1412.82 1648.04 1412.82C1644.08 1412.82 1639.91 1413.85 1635.54 1415.9C1633.63 1416.99 1631.99 1418.02 1630.62 1418.97V1481.5C1631.85 1484.23 1633.35 1486.49 1635.13 1488.26C1639.23 1492.64 1643.88 1494.82 1649.07 1494.82ZM1716.9 1393.35C1716.9 1386.38 1715.94 1381.25 1714.03 1377.97C1712.11 1374.56 1708.29 1372.85 1702.55 1372.85H1700.5V1366.7H1725.1C1730.02 1366.7 1733.78 1367.52 1736.37 1369.16C1738.97 1370.8 1740.81 1373.53 1741.91 1377.36C1743 1381.05 1743.55 1386.38 1743.55 1393.35V1502H1716.9V1393.35ZM1811.36 1504.05C1801.93 1504.05 1793.67 1501.86 1786.56 1497.49C1779.45 1493.12 1773.92 1487.17 1769.95 1479.65C1766.13 1472 1764.21 1463.39 1764.21 1453.82C1764.21 1443.16 1766.13 1434.08 1769.95 1426.56C1773.92 1419.04 1779.32 1413.37 1786.15 1409.54C1792.98 1405.58 1800.7 1403.6 1809.31 1403.6C1817.79 1403.6 1825.44 1405.31 1832.27 1408.72C1839.11 1412.14 1844.51 1416.99 1848.47 1423.28C1852.43 1429.43 1854.41 1436.54 1854.41 1444.6C1854.41 1447.2 1854.28 1450.13 1854 1453.41L1853.59 1457.51H1791.89C1791.89 1470.5 1793.87 1480 1797.83 1486.01C1801.8 1491.89 1807.33 1494.82 1814.44 1494.82C1821 1494.82 1826.47 1493.39 1830.84 1490.52C1835.35 1487.51 1839.65 1483.28 1843.75 1477.81L1850.11 1482.52C1846.15 1488.67 1841.16 1493.8 1835.14 1497.9C1829.27 1502 1821.34 1504.05 1811.36 1504.05ZM1826.74 1448.29C1826.74 1435.44 1825.24 1426.35 1822.23 1421.02C1819.22 1415.56 1814.92 1412.82 1809.31 1412.82C1804.12 1412.82 1799.88 1415.63 1796.6 1421.23C1793.46 1426.7 1791.89 1435.72 1791.89 1448.29H1826.74Z" fill="#9C9C9C"/>
<defs>
<clipPath id="clip0">
<rect width="1024" height="1024" fill="white" transform="translate(506 221)"/>
</clipPath>
</defs>
</svg>
