<svg width="1024" height="1024" viewBox="0 0 1024 1024" fill="none" xmlns="http://www.w3.org/2000/svg">
<g clip-path="url(#clip0)">
<rect width="1024" height="1024" rx="150" fill="#144E5A"/>
<path opacity="0.03" d="M533.535 800.665C662.17 573.516 510.077 501.172 431.006 384.181C351.935 267.19 561.582 108.206 718.684 152.308C875.785 196.41 1033.62 301.988 1100.61 529.739C1167.6 757.49 888.761 1252.38 665.994 1246.05C443.227 1239.71 404.899 1027.81 533.535 800.665Z" fill="white"/>
<path opacity="0.03" d="M554.588 510.729C810.37 457.895 764.575 295.444 800.521 158.617C836.468 21.7897 1094.34 75.0338 1164.69 222.631C1235.05 370.227 1259.61 558.937 1132.32 759.725C1005.04 960.512 448.702 1076.69 306.633 904.482C164.564 732.271 298.807 563.562 554.588 510.729Z" fill="white"/>
<path d="M169.861 765.669C164 765.669 158.348 764.884 152.905 763.314C147.462 761.849 143.014 759.703 139.56 756.877C136.106 753.946 134.379 750.597 134.379 746.829V728.46H138.775C140.345 739.136 143.642 746.829 148.666 751.539C153.69 756.249 160.703 758.604 169.704 758.604C175.775 758.604 180.589 757.296 184.148 754.679C187.707 752.062 189.486 748.294 189.486 743.375C189.486 739.188 188.178 735.63 185.561 732.699C182.944 729.768 178.862 726.576 173.315 723.122L154.004 711.504C146.991 707.422 141.967 703.183 138.932 698.787C136.001 694.391 134.536 689.262 134.536 683.401C134.536 675.132 137.676 668.591 143.956 663.776C150.341 658.961 158.923 656.554 169.704 656.554C175.565 656.554 181.217 657.339 186.66 658.909C192.103 660.374 196.551 662.572 200.005 665.503C203.459 668.329 205.186 671.626 205.186 675.394V693.763H200.79C199.011 683.087 195.714 675.394 190.899 670.684C186.084 665.974 179.595 663.619 171.431 663.619C165.779 663.619 161.278 664.98 157.929 667.701C154.684 670.422 153.062 674.138 153.062 678.848C153.062 682.93 154.318 686.332 156.83 689.053C159.447 691.67 163.633 694.653 169.39 698.002L188.701 709.463C196.028 713.754 201.261 717.941 204.401 722.023C207.646 726 209.268 730.815 209.268 736.467C209.268 745.573 205.814 752.743 198.906 757.976C192.103 763.105 182.421 765.669 169.861 765.669ZM256.925 764.57C249.703 764.57 243.371 762.895 237.928 759.546C232.485 756.197 228.246 751.644 225.211 745.887C222.28 740.026 220.815 733.432 220.815 726.105C220.815 717.941 222.28 710.981 225.211 705.224C228.246 699.467 232.381 695.124 237.614 692.193C242.847 689.158 248.761 687.64 255.355 687.64C261.844 687.64 267.706 688.948 272.939 691.565C278.172 694.182 282.307 697.897 285.342 702.712C288.377 707.422 289.895 712.865 289.895 719.04C289.895 721.029 289.79 723.279 289.581 725.791L289.267 728.931H242.01C242.01 738.874 243.528 746.149 246.563 750.754C249.598 755.255 253.837 757.505 259.28 757.505C264.304 757.505 268.491 756.406 271.84 754.208C275.294 751.905 278.591 748.661 281.731 744.474L286.598 748.085C283.563 752.795 279.742 756.72 275.137 759.86C270.636 763 264.566 764.57 256.925 764.57ZM268.7 721.866C268.7 712.027 267.549 705.067 265.246 700.985C262.943 696.798 259.646 694.705 255.355 694.705C251.378 694.705 248.133 696.851 245.621 701.142C243.214 705.329 242.01 712.237 242.01 721.866H268.7ZM307.446 709.62C307.446 704.282 306.713 700.357 305.248 697.845C303.887 695.228 301.009 693.92 296.613 693.92H295.043V689.21H310.586C314.144 689.21 316.918 689.681 318.907 690.623C321 691.46 322.622 692.926 323.774 695.019C329.112 690.1 336.752 687.64 346.696 687.64C356.639 687.64 364.07 689.995 368.99 694.705C374.014 699.31 376.526 706.585 376.526 716.528V763H356.116V716.371C356.116 709.149 354.755 703.863 352.034 700.514C349.417 697.165 345.806 695.49 341.201 695.49C337.956 695.49 335.078 695.961 332.566 696.903C330.158 697.74 328.222 698.892 326.757 700.357L327.228 702.555C327.646 703.811 327.856 705.852 327.856 708.678V763H307.446V709.62ZM423.97 764.57C413.399 764.57 405.235 761.011 399.478 753.894C393.826 746.672 391 737.409 391 726.105C391 714.801 393.879 705.59 399.635 698.473C405.497 691.251 413.87 687.64 424.755 687.64C428.523 687.64 432.553 688.425 436.844 689.995C438.414 690.728 439.88 691.513 441.24 692.35V679.79C441.24 674.452 440.508 670.527 439.042 668.015C437.577 665.398 434.646 664.09 430.25 664.09H428.68V659.38H447.52C451.288 659.38 454.167 660.008 456.155 661.264C458.144 662.52 459.557 664.613 460.394 667.544C461.232 670.37 461.65 674.452 461.65 679.79V763H448.305L442.81 755.935H442.025C441.083 757.4 439.618 758.866 437.629 760.331C434.071 763.157 429.518 764.57 423.97 764.57ZM427.11 757.505C430.983 757.505 434.489 755.83 437.629 752.481C438.781 751.33 439.984 749.603 441.24 747.3V699.415C440.194 698.578 438.938 697.793 437.472 697.06C434.123 695.49 430.931 694.705 427.895 694.705C417.429 694.705 412.195 705.172 412.195 726.105C412.195 735.839 413.347 743.532 415.649 749.184C418.057 754.731 421.877 757.505 427.11 757.505ZM604.03 770.065C592.726 770.065 584.562 767.448 579.538 762.215C574.618 756.877 572.159 748.242 572.159 736.31V680.732L537.776 763H532.595L490.519 677.592V763H482.669V659.38H501.823L539.817 736.467L572.002 659.38H592.569V736.31C592.569 746.149 593.406 753.371 595.081 757.976C596.755 762.581 599.738 765.303 604.03 766.14V770.065ZM646.972 764.57C639.75 764.57 633.417 762.895 627.975 759.546C622.532 756.197 618.293 751.644 615.258 745.887C612.327 740.026 610.862 733.432 610.862 726.105C610.862 717.941 612.327 710.981 615.258 705.224C618.293 699.467 622.427 695.124 627.661 692.193C632.894 689.158 638.808 687.64 645.402 687.64C651.891 687.64 657.752 688.948 662.986 691.565C668.219 694.182 672.353 697.897 675.389 702.712C678.424 707.422 679.942 712.865 679.942 719.04C679.942 721.029 679.837 723.279 679.628 725.791L679.314 728.931H632.057C632.057 738.874 633.574 746.149 636.61 750.754C639.645 755.255 643.884 757.505 649.327 757.505C654.351 757.505 658.537 756.406 661.887 754.208C665.341 751.905 668.638 748.661 671.778 744.474L676.645 748.085C673.609 752.795 669.789 756.72 665.184 759.86C660.683 763 654.612 764.57 646.972 764.57ZM658.747 721.866C658.747 712.027 657.595 705.067 655.293 700.985C652.99 696.798 649.693 694.705 645.402 694.705C641.424 694.705 638.18 696.851 635.668 701.142C633.26 705.329 632.057 712.237 632.057 721.866H658.747Z" fill="white"/>
<path d="M699.848 679.79C699.848 674.452 699.115 670.527 697.65 668.015C696.184 665.398 693.254 664.09 688.858 664.09H687.288V659.38H730.463C741.243 659.38 750.977 661.526 759.665 665.817C768.457 670.004 772.853 678.377 772.853 690.937C772.853 699.101 770.55 705.433 765.945 709.934C761.444 714.435 756.368 717.418 750.716 718.883C745.064 720.348 739.883 721.081 735.173 721.081H720.258V763H699.848V679.79ZM729.678 714.801C735.853 714.801 740.929 712.917 744.907 709.149C748.884 705.381 750.873 699.049 750.873 690.152C750.873 681.36 748.884 675.08 744.907 671.312C741.034 667.544 736.219 665.66 730.463 665.66C727.427 665.66 725.072 665.869 723.398 666.288L720.258 666.759V714.801H729.678Z" fill="#FFDE6D"/>
<path d="M798.153 680.732C794.385 680.732 791.454 679.581 789.361 677.278C787.372 674.975 786.378 672.149 786.378 668.8C786.378 666.079 787.163 663.933 788.733 662.363C790.408 660.793 792.501 660.008 795.013 660.008C798.781 660.008 801.659 661.159 803.648 663.462C805.741 665.765 806.788 668.591 806.788 671.94C806.788 674.661 805.951 676.807 804.276 678.377C802.706 679.947 800.665 680.732 798.153 680.732ZM787.948 709.62C787.948 704.282 787.215 700.357 785.75 697.845C784.285 695.228 781.354 693.92 776.958 693.92H775.388V689.21H794.228C797.996 689.21 800.874 689.838 802.863 691.094C804.852 692.35 806.265 694.443 807.102 697.374C807.939 700.2 808.358 704.282 808.358 709.62V763H787.948V709.62Z" fill="#FFF4E7"/>
<path d="M860.733 764.57C852.674 764.57 845.818 762.843 840.166 759.389C834.514 755.935 830.223 751.33 827.292 745.573C824.466 739.712 823.053 733.222 823.053 726.105C823.053 718.988 824.466 712.551 827.292 706.794C830.223 700.933 834.514 696.275 840.166 692.821C845.818 689.367 852.674 687.64 860.733 687.64C873.293 687.64 881.405 689.472 885.068 693.135C886.848 694.914 887.947 697.269 888.365 700.2C888.784 703.131 888.993 708.102 888.993 715.115H884.283C883.865 708.521 881.824 703.497 878.16 700.043C874.497 696.484 869.473 694.705 863.088 694.705C857.332 694.705 852.726 697.374 849.272 702.712C845.923 707.945 844.248 715.743 844.248 726.105C844.248 747.038 850.79 757.505 863.873 757.505C868.897 757.505 873.084 756.406 876.433 754.208C879.887 751.905 883.184 748.661 886.324 744.474L891.191 748.085C888.156 752.795 884.336 756.72 879.73 759.86C875.125 763 868.793 764.57 860.733 764.57Z" fill="#E38346"/>
<path d="M429.639 563.345L337.816 569.652C295.625 569.652 261.86 535.391 261.86 493.195L255 377.097C255 334.907 289.323 300.641 331.513 300.641L373.923 304.892C372.577 310.203 371.94 315.795 371.94 321.457L387.231 496.028C387.231 524.984 404.292 550.184 429.639 563.345Z" fill="#FFF4E7"/>
<path d="M768.237 493.195C768.237 535.391 733.971 569.652 691.779 569.652L602.439 560.803C625.305 547.139 640.385 523.285 640.385 496.028L663.388 314.379C663.388 310.273 663.04 306.165 662.395 302.201L684.768 300.641C726.959 300.641 761.144 334.907 761.144 377.097L768.237 493.195" fill="#E38346"/>
<path d="M547.924 555.423C547.008 555.491 546.02 555.491 545.091 555.491L429.639 563.345C404.292 550.184 387.231 524.984 387.231 496.028L371.94 321.457C371.94 315.795 372.577 310.203 373.923 304.892L476.341 314.872C435.212 316.073 404.4 349.845 404.4 391.255V471.961C404.4 514.149 436.484 548.415 478.748 548.415L547.924 555.423" fill="#FFE2A9"/>
<path d="M615.067 398.336V479.04C615.067 520.305 586.417 553.931 545.567 555.423L477.572 548.415C435.305 548.415 404.4 514.149 404.4 471.961V391.255C404.4 349.845 435.212 316.073 476.341 314.872L543.691 321.88C585.952 321.88 615.067 356.145 615.067 398.336Z" fill="#73D0C5"/>
<path d="M663.388 314.379L640.385 496.028C640.385 523.285 625.305 547.139 602.439 560.803L545.567 555.423C586.417 553.931 615.067 520.305 615.067 479.04V398.336C615.067 356.145 584.931 321.88 542.668 321.88L473.131 314.872C473.901 314.801 475.277 314.801 476.051 314.801L662.091 302.201C662.737 306.165 663.388 310.273 663.388 314.379Z" fill="#E3A446"/>
<path d="M602.439 562.219C589.48 570.064 574.124 576.017 557.556 576.017H470.055C455.333 576.017 441.601 571.061 429.639 564.757L545.091 556.196C546.02 556.196 547.008 556.551 547.924 556.485L602.439 562.219Z" fill="#FFDE6D"/>
<path d="M474.307 314.872L373.923 304.892C381.997 270.133 415.053 244.152 454.769 244.152L580.559 237C621.903 237 656.165 265.315 662.395 302.201L476.643 314.801C475.867 314.801 475.085 314.801 474.307 314.872" fill="#FFDE6D"/>
<path d="M647.656 427.028C647.656 500.7 580.852 567.507 507.177 567.507C433.5 567.507 380.849 507.781 380.849 434.104C380.849 360.429 433.5 300.7 507.177 300.7C580.852 300.7 647.656 353.351 647.656 427.028" fill="#141A27"/>
<path d="M612.011 433.535C612.011 490.213 560.623 541.615 503.927 541.615C447.245 541.615 406.748 495.661 406.748 438.98C406.748 382.296 447.245 336.344 503.927 336.344C560.623 336.344 612.011 376.853 612.011 433.535Z" fill="white"/>
<path d="M624.996 423.777C624.996 482.34 571.888 535.443 513.333 535.443C454.769 535.443 412.917 487.967 412.917 429.405C412.917 370.843 454.769 323.361 513.333 323.361C571.888 323.361 624.996 365.213 624.996 423.777" fill="#141A27"/>
<path d="M583.691 363.347C583.691 370.835 576.908 377.623 569.413 377.623C561.924 377.623 556.575 371.555 556.575 364.065C556.575 356.575 561.924 350.504 569.413 350.504C576.908 350.504 583.691 355.855 583.691 363.347" fill="white"/>
<path d="M605.157 392.865C605.157 397.056 601.359 400.86 597.159 400.86C592.964 400.86 589.973 397.463 589.973 393.268C589.973 389.071 592.964 385.673 597.159 385.673C601.359 385.673 605.157 388.668 605.157 392.865Z" fill="white"/>
</g>
<defs>
<clipPath id="clip0">
<rect width="1024" height="1024" fill="white"/>
</clipPath>
</defs>
</svg>
