<svg width="1044" height="236" viewBox="0 0 1044 236" fill="none" xmlns="http://www.w3.org/2000/svg">
<rect width="236" height="236" rx="50" fill="#144E5A"/>
<path d="M92.8218 166.717L64.2846 168.677C51.1724 168.677 40.6786 158.029 40.6786 144.915L38.5466 108.834C38.5466 95.7213 49.2136 85.0721 62.3259 85.0721L75.5061 86.3932C75.0879 88.0437 74.8899 89.7816 74.8899 91.5415L79.642 145.795C79.642 154.795 84.9444 162.626 92.8218 166.717Z" fill="#FFF4E7"/>
<path d="M198.053 144.915C198.053 158.029 187.404 168.677 174.291 168.677L146.525 165.926C153.632 161.68 158.319 154.267 158.319 145.795L165.468 89.3415C165.468 88.0656 165.359 86.7889 165.159 85.557L172.112 85.0721C185.224 85.0721 195.849 95.7213 195.849 108.834L198.053 144.915" fill="#E38346"/>
<path d="M129.583 164.254C129.298 164.276 128.991 164.276 128.703 164.276L92.8218 166.717C84.9444 162.626 79.642 154.795 79.642 145.795L74.8899 91.5414C74.8899 89.7816 75.088 88.0436 75.5061 86.3932L107.336 89.4948C94.5539 89.8682 84.978 100.364 84.978 113.233V138.316C84.978 151.427 94.9492 162.076 108.084 162.076L129.583 164.254" fill="#FFE2A9"/>
<path d="M150.45 115.434V140.516C150.45 153.34 141.546 163.791 128.851 164.254L107.719 162.076C94.583 162.076 84.978 151.427 84.978 138.316V113.233C84.978 100.364 94.5539 89.8682 107.336 89.4948L128.268 91.6728C141.402 91.6728 150.45 102.322 150.45 115.434Z" fill="#73D0C5"/>
<path d="M165.468 89.3415L158.319 145.795C158.319 154.267 153.632 161.68 146.525 165.926L128.85 164.254C141.546 163.791 150.45 153.34 150.45 140.516V115.434C150.45 102.322 141.084 91.6728 127.95 91.6728L106.338 89.4948C106.578 89.4728 107.006 89.4729 107.246 89.4729L165.064 85.557C165.265 86.7889 165.468 88.0656 165.468 89.3415Z" fill="#E3A446"/>
<path d="M146.525 166.367C142.498 168.805 137.726 170.655 132.577 170.655H105.382C100.807 170.655 96.5396 169.115 92.8218 167.156L128.703 164.495C128.991 164.495 129.298 164.605 129.583 164.585L146.525 166.367Z" fill="#FFDE6D"/>
<path d="M106.704 89.4948L75.5061 86.3932C78.0156 75.5907 88.2889 67.5161 100.632 67.5161L139.726 65.2933C152.575 65.2933 163.223 74.0931 165.159 85.557L107.43 89.4729C107.189 89.4729 106.946 89.4728 106.704 89.4948" fill="#FFDE6D"/>
<path d="M160.578 124.351C160.578 147.247 139.817 168.01 116.92 168.01C94.0217 168.01 77.6587 149.448 77.6587 126.55C77.6587 103.653 94.0217 85.0904 116.92 85.0904C139.817 85.0904 160.578 101.453 160.578 124.351" fill="#141A27"/>
<path d="M149.5 126.373C149.5 143.988 133.53 159.963 115.909 159.963C98.2937 159.963 85.7078 145.681 85.7078 128.066C85.7078 110.449 98.2937 96.168 115.909 96.168C133.53 96.168 149.5 108.758 149.5 126.373Z" fill="white"/>
<path d="M153.536 123.341C153.536 141.541 137.031 158.045 118.833 158.045C100.632 158.045 87.625 143.29 87.625 125.09C87.625 106.89 100.632 92.1331 118.833 92.1331C137.031 92.1331 153.536 105.14 153.536 123.341" fill="#141A27"/>
<path d="M140.699 104.56C140.699 106.887 138.591 108.997 136.262 108.997C133.934 108.997 132.271 107.111 132.271 104.783C132.271 102.455 133.934 100.569 136.262 100.569C138.591 100.569 140.699 102.232 140.699 104.56" fill="white"/>
<path d="M147.371 113.734C147.371 115.036 146.19 116.219 144.885 116.219C143.581 116.219 142.652 115.163 142.652 113.859C142.652 112.555 143.581 111.499 144.885 111.499C146.19 111.499 147.371 112.43 147.371 113.734Z" fill="white"/>
<path d="M317.861 173.669C312 173.669 306.348 172.884 300.905 171.314C295.462 169.849 291.014 167.703 287.56 164.877C284.106 161.946 282.379 158.597 282.379 154.829V136.46H286.775C288.345 147.136 291.642 154.829 296.666 159.539C301.69 164.249 308.703 166.604 317.704 166.604C323.775 166.604 328.589 165.296 332.148 162.679C335.707 160.062 337.486 156.294 337.486 151.375C337.486 147.188 336.178 143.63 333.561 140.699C330.944 137.768 326.862 134.576 321.315 131.122L302.004 119.504C294.991 115.422 289.967 111.183 286.932 106.787C284.001 102.391 282.536 97.2623 282.536 91.401C282.536 83.1323 285.676 76.5907 291.956 71.776C298.341 66.9613 306.923 64.554 317.704 64.554C323.565 64.554 329.217 65.339 334.66 66.909C340.103 68.3743 344.551 70.5723 348.005 73.503C351.459 76.329 353.186 79.626 353.186 83.394V101.763H348.79C347.011 91.087 343.714 83.394 338.899 78.684C334.084 73.974 327.595 71.619 319.431 71.619C313.779 71.619 309.278 72.9797 305.929 75.701C302.684 78.4223 301.062 82.138 301.062 86.848C301.062 90.93 302.318 94.3317 304.83 97.053C307.447 99.6697 311.633 102.653 317.39 106.002L336.701 117.463C344.028 121.754 349.261 125.941 352.401 130.023C355.646 134 357.268 138.815 357.268 144.467C357.268 153.573 353.814 160.743 346.906 165.976C340.103 171.105 330.421 173.669 317.861 173.669ZM404.925 172.57C397.703 172.57 391.371 170.895 385.928 167.546C380.485 164.197 376.246 159.644 373.211 153.887C370.28 148.026 368.815 141.432 368.815 134.105C368.815 125.941 370.28 118.981 373.211 113.224C376.246 107.467 380.381 103.124 385.614 100.193C390.847 97.1577 396.761 95.64 403.355 95.64C409.844 95.64 415.706 96.9483 420.939 99.565C426.172 102.182 430.307 105.897 433.342 110.712C436.377 115.422 437.895 120.865 437.895 127.04C437.895 129.029 437.79 131.279 437.581 133.791L437.267 136.931H390.01C390.01 146.874 391.528 154.149 394.563 158.754C397.598 163.255 401.837 165.505 407.28 165.505C412.304 165.505 416.491 164.406 419.84 162.208C423.294 159.905 426.591 156.661 429.731 152.474L434.598 156.085C431.563 160.795 427.742 164.72 423.137 167.86C418.636 171 412.566 172.57 404.925 172.57ZM416.7 129.866C416.7 120.027 415.549 113.067 413.246 108.985C410.943 104.798 407.646 102.705 403.355 102.705C399.378 102.705 396.133 104.851 393.621 109.142C391.214 113.329 390.01 120.237 390.01 129.866H416.7ZM455.446 117.62C455.446 112.282 454.713 108.357 453.248 105.845C451.887 103.228 449.009 101.92 444.613 101.92H443.043V97.21H458.586C462.144 97.21 464.918 97.681 466.907 98.623C469 99.4603 470.622 100.926 471.774 103.019C477.112 98.0997 484.752 95.64 494.696 95.64C504.639 95.64 512.07 97.995 516.99 102.705C522.014 107.31 524.526 114.585 524.526 124.528V171H504.116V124.371C504.116 117.149 502.755 111.863 500.034 108.514C497.417 105.165 493.806 103.49 489.201 103.49C485.956 103.49 483.078 103.961 480.566 104.903C478.158 105.74 476.222 106.892 474.757 108.357L475.228 110.555C475.646 111.811 475.856 113.852 475.856 116.678V171H455.446V117.62ZM571.97 172.57C561.399 172.57 553.235 169.011 547.478 161.894C541.826 154.672 539 145.409 539 134.105C539 122.801 541.879 113.59 547.635 106.473C553.497 99.251 561.87 95.64 572.755 95.64C576.523 95.64 580.553 96.425 584.844 97.995C586.414 98.7277 587.88 99.5127 589.24 100.35V87.79C589.24 82.452 588.508 78.527 587.042 76.015C585.577 73.3983 582.646 72.09 578.25 72.09H576.68V67.38H595.52C599.288 67.38 602.167 68.008 604.155 69.264C606.144 70.52 607.557 72.6133 608.394 75.544C609.232 78.37 609.65 82.452 609.65 87.79V171H596.305L590.81 163.935H590.025C589.083 165.4 587.618 166.866 585.629 168.331C582.071 171.157 577.518 172.57 571.97 172.57ZM575.11 165.505C578.983 165.505 582.489 163.83 585.629 160.481C586.781 159.33 587.984 157.603 589.24 155.3V107.415C588.194 106.578 586.938 105.793 585.472 105.06C582.123 103.49 578.931 102.705 575.895 102.705C565.429 102.705 560.195 113.172 560.195 134.105C560.195 143.839 561.347 151.532 563.649 157.184C566.057 162.731 569.877 165.505 575.11 165.505ZM752.03 178.065C740.726 178.065 732.562 175.448 727.538 170.215C722.618 164.877 720.159 156.242 720.159 144.31V88.732L685.776 171H680.595L638.519 85.592V171H630.669V67.38H649.823L687.817 144.467L720.002 67.38H740.569V144.31C740.569 154.149 741.406 161.371 743.081 165.976C744.755 170.581 747.738 173.303 752.03 174.14V178.065ZM794.972 172.57C787.75 172.57 781.417 170.895 775.975 167.546C770.532 164.197 766.293 159.644 763.258 153.887C760.327 148.026 758.862 141.432 758.862 134.105C758.862 125.941 760.327 118.981 763.258 113.224C766.293 107.467 770.427 103.124 775.661 100.193C780.894 97.1577 786.808 95.64 793.402 95.64C799.891 95.64 805.752 96.9483 810.986 99.565C816.219 102.182 820.353 105.897 823.389 110.712C826.424 115.422 827.942 120.865 827.942 127.04C827.942 129.029 827.837 131.279 827.628 133.791L827.314 136.931H780.057C780.057 146.874 781.574 154.149 784.61 158.754C787.645 163.255 791.884 165.505 797.327 165.505C802.351 165.505 806.537 164.406 809.887 162.208C813.341 159.905 816.638 156.661 819.778 152.474L824.645 156.085C821.609 160.795 817.789 164.72 813.184 167.86C808.683 171 802.612 172.57 794.972 172.57ZM806.747 129.866C806.747 120.027 805.595 113.067 803.293 108.985C800.99 104.798 797.693 102.705 793.402 102.705C789.424 102.705 786.18 104.851 783.668 109.142C781.26 113.329 780.057 120.237 780.057 129.866H806.747Z" fill="#144E5A"/>
<path d="M847.848 87.79C847.848 82.452 847.115 78.527 845.65 76.015C844.184 73.3983 841.254 72.09 836.858 72.09H835.288V67.38H878.463C889.243 67.38 898.977 69.5257 907.665 73.817C916.457 78.0037 920.853 86.377 920.853 98.937C920.853 107.101 918.55 113.433 913.945 117.934C909.444 122.435 904.368 125.418 898.716 126.883C893.064 128.348 887.883 129.081 883.173 129.081H868.258V171H847.848V87.79ZM877.678 122.801C883.853 122.801 888.929 120.917 892.907 117.149C896.884 113.381 898.873 107.049 898.873 98.152C898.873 89.36 896.884 83.08 892.907 79.312C889.034 75.544 884.219 73.66 878.463 73.66C875.427 73.66 873.072 73.8693 871.398 74.288L868.258 74.759V122.801H877.678Z" fill="#F9B406"/>
<path d="M946.153 88.732C942.385 88.732 939.454 87.5807 937.361 85.278C935.372 82.9753 934.378 80.1493 934.378 76.8C934.378 74.0787 935.163 71.933 936.733 70.363C938.408 68.793 940.501 68.008 943.013 68.008C946.781 68.008 949.659 69.1593 951.648 71.462C953.741 73.7647 954.788 76.5907 954.788 79.94C954.788 82.6613 953.951 84.807 952.276 86.377C950.706 87.947 948.665 88.732 946.153 88.732ZM935.948 117.62C935.948 112.282 935.215 108.357 933.75 105.845C932.285 103.228 929.354 101.92 924.958 101.92H923.388V97.21H942.228C945.996 97.21 948.874 97.838 950.863 99.094C952.852 100.35 954.265 102.443 955.102 105.374C955.939 108.2 956.358 112.282 956.358 117.62V171H935.948V117.62Z" fill="#141A27"/>
<path d="M1008.73 172.57C1000.67 172.57 993.818 170.843 988.166 167.389C982.514 163.935 978.223 159.33 975.292 153.573C972.466 147.712 971.053 141.222 971.053 134.105C971.053 126.988 972.466 120.551 975.292 114.794C978.223 108.933 982.514 104.275 988.166 100.821C993.818 97.367 1000.67 95.64 1008.73 95.64C1021.29 95.64 1029.41 97.4717 1033.07 101.135C1034.85 102.914 1035.95 105.269 1036.37 108.2C1036.78 111.131 1036.99 116.102 1036.99 123.115H1032.28C1031.86 116.521 1029.82 111.497 1026.16 108.043C1022.5 104.484 1017.47 102.705 1011.09 102.705C1005.33 102.705 1000.73 105.374 997.272 110.712C993.923 115.945 992.248 123.743 992.248 134.105C992.248 155.038 998.79 165.505 1011.87 165.505C1016.9 165.505 1021.08 164.406 1024.43 162.208C1027.89 159.905 1031.18 156.661 1034.32 152.474L1039.19 156.085C1036.16 160.795 1032.34 164.72 1027.73 167.86C1023.13 171 1016.79 172.57 1008.73 172.57Z" fill="#EB7931"/>
</svg>
